<?xml version="1.0" encoding="UTF-8" standalone="no"?>
<svg
   xmlns:dc="http://purl.org/dc/elements/1.1/"
   xmlns:cc="http://creativecommons.org/ns#"
   xmlns:rdf="http://www.w3.org/1999/02/22-rdf-syntax-ns#"
   xmlns:svg="http://www.w3.org/2000/svg"
   xmlns="http://www.w3.org/2000/svg"
   viewBox="0 0 188.97333 188.97333"
   height="188.97333"
   width="188.97333"
   xml:space="preserve"
   id="svg2"
   version="1.1"><metadata
     id="metadata8"><rdf:RDF><cc:Work
         rdf:about=""><dc:format>image/svg+xml</dc:format><dc:type
           rdf:resource="http://purl.org/dc/dcmitype/StillImage" /></cc:Work></rdf:RDF></metadata><defs
     id="defs6"><clipPath
       id="clipPath20"
       clipPathUnits="userSpaceOnUse"><path
         id="path18"
         d="M 0,141.73 H 141.73 V 0 H 0 Z" /></clipPath></defs><g
     transform="matrix(1.3333333,0,0,-1.3333333,0,188.97333)"
     id="g10"><path
       id="path12"
       style="fill:#0b0204;fill-opacity:1;fill-rule:nonzero;stroke:none"
       d="M 121,33.36 H 21.076 v 94.031 H 121 Z" /><g
       id="g14"><g
         clip-path="url(#clipPath20)"
         id="g16"><g
           transform="translate(86.1787,85.6554)"
           id="g22"><path
             id="path24"
             style="fill:#ffffff;fill-opacity:1;fill-rule:nonzero;stroke:none"
             d="m 0,0 c -0.395,2.865 1.311,2.361 0.507,5.476 -4.531,17.538 -18.836,22.745 -29.078,22.464 -2.774,-0.077 -6.675,-0.724 -10.707,-2.207 1.65,-2.084 3.127,-4.493 4.35,-7.272 0.789,-1.794 0.68,-3.29 0.601,-4.382 -0.075,-1.024 -0.082,-1.405 0.286,-1.932 0.465,-0.666 2.096,-1.902 3.535,-2.993 3.38,-2.561 6.572,-4.98 6.64,-7.748 0.05,-2.036 -1.456,-3.365 -2.836,-4.234 0.359,-0.466 0.658,-1.056 0.673,-1.793 0.044,-2.102 -2.081,-2.988 -4.33,-3.927 -0.632,-0.263 -1.743,-0.727 -2.465,-1.142 0.491,-0.178 1.116,-0.354 1.561,-0.479 2.061,-0.58 4.626,-1.302 5.33,-3.639 0.428,-1.422 -0.317,-2.457 -0.717,-3.014 -0.315,-0.437 -0.362,-0.534 -0.349,-0.756 0.402,-3.94 -0.166,-6.609 -1.789,-8.398 -1.866,-2.056 -4.654,-2.319 -7.135,-2.304 -0.698,0.005 -1.421,0.032 -2.119,0.058 -0.702,0.026 -1.428,0.053 -2.13,0.058 -1.931,0.011 -4.117,-0.128 -5.694,-1.252 -1.882,-1.343 -2.971,-3.112 -3.33,-5.409 -0.906,-5.809 4.314,-14.68 4.74,-15.364 0.017,-0.026 21.078,-0.011 21.078,-0.011 -0.246,4.887 0.793,12.744 6.937,13.478 8.524,1.019 16.965,-7.524 18.009,6.809 0.208,1.896 0.056,1.97 1.015,2.898 2.637,2.552 -0.708,3.772 -2.686,4.027 3.693,0.279 4.718,2.304 3.83,3.384 -1.343,1.633 -1.143,4.166 1.119,4.861 1.39,0.427 2.89,0.954 3.364,2.447 C 9.008,-9.786 0.508,-3.686 0,0" /></g><g
           transform="translate(72.103,84.8695)"
           id="g26"><path
             id="path28"
             style="fill:#0b0204;fill-opacity:1;fill-rule:nonzero;stroke:none"
             d="m 0,0 h 0.003 z m 1.037,0.093 c 1.486,-0.572 4.814,-1.407 7.965,0.9 -3.374,1.27 -5.491,0.725 -7.965,-0.9 m 3.282,-1.626 c -2.583,0.016 -4.533,1.067 -4.566,1.086 -0.154,0.085 -0.253,0.242 -0.263,0.418 -0.01,0.175 0.07,0.343 0.213,0.445 C 2.871,2.681 5.604,3.602 10.2,1.61 10.361,1.541 10.474,1.394 10.502,1.222 10.529,1.049 10.467,0.875 10.336,0.759 8.319,-1.029 6.159,-1.544 4.319,-1.533" /></g><g
           transform="translate(76.1577,83.8161)"
           id="g30"><path
             id="path32"
             style="fill:#0b0204;fill-opacity:1;fill-rule:nonzero;stroke:none"
             d="M 0,0 V 0 C -0.775,-0.002 -1.411,0.63 -1.413,1.405 -1.415,2.18 -0.783,2.816 -0.008,2.818 0.767,2.82 1.403,2.188 1.405,1.413 1.407,0.638 0.775,0.002 0,0" /></g><g
           transform="translate(87.8956,70.0325)"
           id="g34"><path
             id="path36"
             style="fill:#0b0204;fill-opacity:1;fill-rule:nonzero;stroke:none"
             d="M 0,0 H -0.008 C -0.291,0.007 -0.514,0.241 -0.508,0.522 -0.479,1.81 0.63,3.142 1.774,3.263 2.056,3.292 2.306,3.089 2.336,2.808 2.366,2.528 2.162,2.276 1.882,2.246 1.234,2.178 0.531,1.28 0.514,0.5 0.508,0.22 0.278,-0.002 0,0" /></g><g
           transform="translate(71.9228,87.8301)"
           id="g38"><path
             id="path40"
             style="fill:#0b0204;fill-opacity:1;fill-rule:nonzero;stroke:none"
             d="m 0,0 c -0.184,0.001 -0.361,0.102 -0.451,0.276 -0.13,0.251 -0.032,0.559 0.219,0.689 3.867,2 7.588,2.202 11.055,0.603 C 11.08,1.449 11.192,1.146 11.074,0.889 10.955,0.633 10.65,0.522 10.395,0.639 7.229,2.1 3.811,1.904 0.237,0.057 0.161,0.018 0.08,0 0,0" /></g><g
           transform="translate(114.2892,115.7782)"
           id="g42"><path
             id="path44"
             style="fill:#ffffff;fill-opacity:1;fill-rule:nonzero;stroke:none"
             d="M 0,0 C 0.054,0.008 0.088,0.007 0.103,-0.001 0.129,-0.007 0.178,-0.016 0.25,-0.027 0.322,-0.04 0.365,-0.05 0.38,-0.059 l 0.014,-0.052 0.018,-0.07 -0.024,-0.4 c -0.026,0.006 -0.081,0.033 -0.161,0.08 -0.082,0.046 -0.131,0.08 -0.149,0.101 -0.018,0.02 -0.049,0.08 -0.095,0.18 -0.045,0.101 -0.072,0.168 -0.082,0.202 C -0.088,-0.015 -0.054,-0.009 0,0 m -0.107,-1.956 c 0.067,0.124 0.115,0.202 0.144,0.235 0.008,0.015 0.038,0.032 0.089,0.052 0.051,0.02 0.082,0.031 0.094,0.034 0.006,-0.023 0.015,-0.092 0.027,-0.208 0.012,-0.115 0.015,-0.186 0.01,-0.212 C 0.251,-2.082 0.225,-2.136 0.178,-2.217 0.131,-2.298 0.097,-2.347 0.077,-2.365 l -0.31,0.18 c 0.018,0.028 0.059,0.106 0.126,0.229 M -0.221,1.428 C -0.215,1.404 -0.228,1.382 -0.26,1.362 -0.292,1.341 -0.314,1.353 -0.326,1.4 -0.342,1.458 -0.33,1.486 -0.292,1.484 -0.254,1.482 -0.231,1.463 -0.221,1.428 M -0.604,2.373 C -0.597,2.35 -0.61,2.328 -0.642,2.307 -0.674,2.286 -0.696,2.299 -0.709,2.346 -0.724,2.404 -0.713,2.431 -0.675,2.43 -0.637,2.427 -0.613,2.409 -0.604,2.373 m -41.652,-81.284 c -0.013,0.048 -0.02,0.077 -0.019,0.09 -0.001,0.024 0.005,0.06 0.017,0.108 0.011,0.048 0.017,0.079 0.017,0.091 0.012,0 0.084,0.016 0.216,0.047 0.133,0.032 0.229,0.06 0.289,0.084 l 0.072,0.001 0.072,10e-4 c -0.024,-0.024 -0.069,-0.067 -0.134,-0.128 -0.066,-0.061 -0.11,-0.103 -0.135,-0.128 -0.023,-0.024 -0.083,-0.067 -0.179,-0.128 -0.095,-0.061 -0.161,-0.104 -0.197,-0.128 -10e-4,0.012 -0.007,0.041 -0.019,0.09 m -0.352,0.804 c 0.022,-0.081 0.061,-0.114 0.12,-0.098 0.07,0.018 0.094,0.069 0.073,0.15 -0.022,0.081 -0.069,0.113 -0.138,0.094 -0.059,-0.015 -0.077,-0.064 -0.055,-0.146 m 34.359,35.098 c -0.024,-0.006 -0.046,0.006 -0.067,0.038 -0.021,0.032 -0.008,0.054 0.039,0.066 0.058,0.016 0.086,0.005 0.084,-0.034 -0.003,-0.037 -0.021,-0.061 -0.056,-0.07 m -34.46,-31.626 c -0.023,-0.006 -0.045,0.007 -0.066,0.038 -0.024,0.044 -0.013,0.072 0.034,0.084 0.058,0.016 0.087,-10e-4 0.088,-0.051 -0.002,-0.038 -0.021,-0.062 -0.056,-0.071 m 34.002,31.167 c 0.017,0.029 0.05,0.066 0.101,0.111 0.05,0.044 0.088,0.07 0.111,0.076 l 0.22,-0.334 c 0.003,-0.012 0.014,-0.043 0.034,-0.094 0.02,-0.051 0.031,-0.082 0.034,-0.093 -0.023,-0.007 -0.069,-0.01 -0.138,-0.009 -0.068,0 -0.116,0.003 -0.142,0.009 -0.015,0.008 -0.045,0.037 -0.09,0.088 -0.044,0.051 -0.077,0.092 -0.098,0.124 l -0.018,0.069 z m -35.831,-33.431 0.018,-0.07 0.015,-0.052 c 0.008,0.015 0.024,0.037 0.047,0.069 0.023,0.031 0.037,0.059 0.043,0.086 l -0.015,0.052 -0.018,0.07 z m 44.585,61.864 c 0.019,-0.12 0.02,-0.194 0.003,-0.224 -0.006,-0.026 -0.029,-0.079 -0.07,-0.159 -0.041,-0.079 -0.078,-0.13 -0.109,-0.15 -0.021,-0.019 -0.061,-0.045 -0.12,-0.079 -0.059,-0.035 -0.101,-0.055 -0.124,-0.061 -0.003,0.011 -0.009,0.044 -0.017,0.098 -0.008,0.054 -0.013,0.087 -0.017,0.099 0.009,0.014 0.027,0.041 0.054,0.079 0.027,0.038 0.039,0.064 0.036,0.076 0.017,0.029 0.045,0.102 0.083,0.218 0.037,0.116 0.059,0.187 0.064,0.214 0.009,0.014 0.038,0.034 0.087,0.06 0.049,0.025 0.079,0.04 0.091,0.043 0.007,-0.023 0.019,-0.095 0.039,-0.214 m -0.406,0.116 c 0.007,-0.023 -0.012,-0.047 -0.055,-0.07 -0.032,-0.022 -0.054,-0.009 -0.067,0.038 -0.015,0.058 -0.004,0.086 0.034,0.084 0.05,0.001 0.079,-0.017 0.088,-0.052 m -0.238,0.405 0.053,0.014 c 0.026,-0.006 0.057,-0.02 0.094,-0.041 0.037,-0.021 0.058,-0.038 0.061,-0.049 l -0.245,-0.065 -0.033,0.122 z m -56.265,-66.201 -0.179,-0.309 -0.019,0.07 -0.013,0.052 c 0.005,0.027 0.018,0.058 0.04,0.095 0.021,0.037 0.038,0.057 0.049,0.06 0.033,0.02 0.054,0.033 0.065,0.036 z m 11.023,-0.01 c -0.024,-0.006 -0.046,0.007 -0.067,0.039 -0.021,0.031 -0.009,0.054 0.038,0.066 0.058,0.016 0.086,0.004 0.084,-0.034 -0.002,-0.037 -0.02,-0.062 -0.055,-0.071 m 44.807,74.6 c 0.006,-0.024 -0.007,-0.046 -0.039,-0.067 -0.031,-0.021 -0.053,-0.008 -0.066,0.039 -0.015,0.058 -0.004,0.086 0.034,0.083 0.038,-0.002 0.062,-0.021 0.071,-0.055 m -45.172,-72.807 c 0.022,-0.082 0.061,-0.115 0.12,-0.1 0.058,0.016 0.076,0.065 0.054,0.146 -0.021,0.081 -0.061,0.114 -0.119,0.099 -0.059,-0.016 -0.077,-0.064 -0.055,-0.145 M 3.81,-24.944 c -0.024,-0.007 -0.045,0.006 -0.066,0.038 -0.021,0.032 -0.003,0.055 0.055,0.07 0.059,0.016 0.081,0.003 0.067,-0.038 -0.002,-0.038 -0.021,-0.061 -0.056,-0.07 m -5.238,18.339 c -0.024,-0.006 -0.046,0.007 -0.067,0.038 -0.021,0.032 -0.007,0.055 0.039,0.067 0.058,0.015 0.086,0.004 0.084,-0.034 -0.003,-0.038 -0.021,-0.062 -0.056,-0.071 m 5.016,-18.417 c 0.005,-0.024 -0.013,-0.048 -0.056,-0.071 -0.032,-0.022 -0.055,-0.009 -0.067,0.038 -0.015,0.058 -0.004,0.086 0.034,0.084 0.05,0 0.079,-0.017 0.089,-0.051 M -39.577,2.48 c -0.024,-0.007 -0.045,0.006 -0.066,0.038 -0.022,0.032 -0.009,0.054 0.038,0.067 0.058,0.015 0.086,0.004 0.084,-0.034 -0.002,-0.038 -0.021,-0.062 -0.056,-0.071 m 37.878,-8.559 c 0.011,0.004 0.023,0.004 0.037,10e-4 0.013,-0.003 0.025,-0.003 0.037,0.001 0.015,-0.009 0.04,-0.021 0.075,-0.037 0.036,-0.015 0.063,-0.033 0.08,-0.054 0.003,-0.011 0.012,-0.031 0.025,-0.058 0.014,-0.028 0.022,-0.047 0.025,-0.059 l -0.262,-0.069 -0.065,0.244 z m -0.527,-8.289 c 0.006,-0.024 -0.006,-0.046 -0.039,-0.066 -0.031,-0.022 -0.053,-0.009 -0.066,0.039 -0.015,0.057 -0.004,0.085 0.034,0.083 0.038,-0.002 0.062,-0.021 0.071,-0.056 M -58.32,-81.421 c -0.023,-0.006 -0.046,0.007 -0.066,0.039 -0.021,0.031 -0.009,0.054 0.038,0.066 0.058,0.016 0.086,0.004 0.084,-0.034 -0.002,-0.038 -0.021,-0.062 -0.056,-0.071 m 55.863,67.852 c 0.021,-0.082 0.061,-0.115 0.12,-0.099 0.058,0.015 0.076,0.064 0.055,0.145 -0.025,0.094 -0.067,0.132 -0.125,0.117 -0.058,-0.016 -0.075,-0.07 -0.05,-0.163 m -0.054,-16.532 c 0.006,-0.024 -0.006,-0.046 -0.038,-0.067 -0.043,-0.023 -0.072,-0.013 -0.084,0.034 -0.015,0.058 0.002,0.088 0.051,0.089 0.039,-0.003 0.062,-0.021 0.071,-0.056 m -45.021,-44.826 c 0.022,-0.082 0.062,-0.115 0.12,-0.099 0.058,0.015 0.076,0.064 0.054,0.145 -0.021,0.082 -0.061,0.115 -0.119,0.1 -0.058,-0.016 -0.077,-0.065 -0.055,-0.146 M 2.594,-23.08 c 0.067,0.005 0.112,0.011 0.135,0.018 0.027,-0.006 0.058,-0.019 0.095,-0.041 0.037,-0.021 0.057,-0.038 0.06,-0.049 0.007,-0.024 0.002,-0.068 -0.011,-0.134 -0.014,-0.066 -0.029,-0.114 -0.046,-0.143 0.003,-0.012 -0.013,-0.022 -0.048,-0.032 -0.046,-0.012 -0.071,-0.012 -0.074,-0.001 -0.015,0.009 -0.046,0.041 -0.092,0.098 -0.046,0.056 -0.078,0.094 -0.096,0.114 -0.003,0.012 -0.013,0.037 -0.029,0.077 -0.017,0.039 -0.027,0.064 -0.03,0.076 0.023,0.006 0.068,0.011 0.136,0.017 m -62.181,-54.282 0.037,-0.139 c -0.023,-0.007 -0.047,-0.01 -0.072,-0.01 -0.025,-0.001 -0.049,-0.004 -0.072,-0.01 l -0.155,0.089 z m -0.314,-2.122 c 0.006,-0.024 -0.007,-0.046 -0.039,-0.067 -0.032,-0.021 -0.054,-0.008 -0.066,0.039 -0.016,0.058 -0.004,0.086 0.034,0.084 0.038,-0.003 0.062,-0.021 0.071,-0.056 m 55.578,60.555 c 0.022,-0.082 0.061,-0.115 0.12,-0.099 0.057,0.015 0.076,0.063 0.054,0.146 -0.021,0.08 -0.061,0.114 -0.119,0.098 -0.059,-0.016 -0.077,-0.064 -0.055,-0.145 M -41.889,5.475 -42.012,5.442 -42.044,5.565 Z M -4.56,-19.516 c 0.022,-0.082 0.061,-0.115 0.119,-0.099 0.059,0.015 0.077,0.063 0.055,0.146 -0.021,0.081 -0.061,0.114 -0.12,0.099 -0.058,-0.016 -0.076,-0.064 -0.054,-0.146 m -24.499,19.312 c 0.021,-0.081 0.06,-0.114 0.119,-0.099 0.058,0.016 0.077,0.065 0.055,0.146 -0.024,0.094 -0.066,0.132 -0.124,0.116 -0.059,-0.015 -0.075,-0.069 -0.05,-0.163 m -0.144,1.029 c 0.022,-0.082 0.062,-0.115 0.121,-0.099 0.058,0.016 0.076,0.064 0.054,0.146 -0.021,0.081 -0.061,0.114 -0.119,0.098 -0.059,-0.015 -0.077,-0.064 -0.056,-0.145 m -32.007,-79.33 c -0.023,-0.006 -0.045,0.008 -0.066,0.039 -0.021,0.032 -0.008,0.054 0.038,0.066 0.059,0.016 0.087,0.005 0.084,-0.034 -0.002,-0.037 -0.021,-0.061 -0.056,-0.071 m 55.898,59.705 0.09,0.155 -0.155,0.09 z m -56.418,-60.703 0.07,0.018 0.155,-0.09 -0.07,-0.018 -0.052,-0.014 c -0.027,0.005 -0.058,0.019 -0.095,0.04 -0.037,0.022 -0.057,0.038 -0.06,0.05 z m 31.761,80.255 c 0.022,-0.082 0.062,-0.115 0.12,-0.099 0.058,0.015 0.077,0.064 0.055,0.145 -0.021,0.081 -0.062,0.115 -0.12,0.099 -0.058,-0.015 -0.076,-0.064 -0.055,-0.145 m 23.996,-30.708 c -0.023,-0.007 -0.045,0.007 -0.066,0.038 -0.033,0.029 -0.02,0.051 0.038,0.067 0.059,0.015 0.087,0.004 0.084,-0.034 -0.002,-0.038 -0.021,-0.062 -0.056,-0.071 m -37.677,36.141 0.033,-0.123 -0.155,0.09 z m 0.095,1.615 c 0.022,0.006 0.045,0.028 0.066,0.065 0.021,0.036 0.029,0.067 0.023,0.09 0.005,0.026 0.003,0.07 -0.006,0.129 -0.01,0.06 -0.018,0.101 -0.024,0.125 l -0.279,-0.074 z m 13.292,-7.912 c 0.022,-0.082 0.062,-0.114 0.12,-0.099 0.058,0.016 0.077,0.064 0.055,0.145 -0.021,0.082 -0.062,0.115 -0.12,0.1 -0.058,-0.016 -0.076,-0.065 -0.055,-0.146 m -0.154,0.09 c 0.021,-0.081 0.061,-0.115 0.119,-0.099 0.059,0.015 0.077,0.064 0.055,0.145 -0.021,0.082 -0.061,0.114 -0.12,0.099 -0.058,-0.016 -0.076,-0.064 -0.054,-0.145 M -30.425,0.5 c 0.022,-0.082 0.061,-0.115 0.12,-0.1 0.058,0.016 0.076,0.064 0.054,0.146 -0.021,0.081 -0.061,0.114 -0.119,0.099 -0.059,-0.016 -0.077,-0.064 -0.055,-0.145 m 0.592,4.289 0.411,0.098 -0.447,0.024 z m -14.478,2.09 c 0.021,0.036 0.042,0.065 0.062,0.082 l 0.122,0.033 0.123,0.032 -0.18,-0.31 -0.155,0.09 c -0.003,0.012 0.006,0.035 0.028,0.073 m -18.3,-84.054 c 0.006,-0.023 -0.006,-0.045 -0.039,-0.066 -0.043,-0.024 -0.071,-0.014 -0.083,0.034 -0.016,0.058 0.002,0.087 0.051,0.089 0.038,-0.003 0.062,-0.022 0.071,-0.057 m 31.857,78.56 c 0.013,-0.047 0.035,-0.06 0.066,-0.039 0.032,0.021 0.045,0.043 0.038,0.067 -0.009,0.034 -0.032,0.054 -0.071,0.056 -0.038,0.002 -0.049,-0.026 -0.033,-0.084 m 25.472,-59.547 0.122,0.032 -0.032,0.123 -0.123,-0.033 z M -30.285,5.467 c 0.024,-0.081 0.069,-0.115 0.134,-0.099 0.065,0.015 0.085,0.064 0.061,0.145 -0.024,0.082 -0.069,0.114 -0.134,0.099 -0.065,-0.016 -0.085,-0.064 -0.061,-0.145 m -0.056,-0.798 c 0.025,-0.083 0.069,-0.116 0.135,-0.1 0.065,0.015 0.085,0.064 0.061,0.146 -0.024,0.081 -0.069,0.114 -0.134,0.098 -0.065,-0.015 -0.085,-0.063 -0.062,-0.144 m -0.252,-3.681 c -0.056,-0.022 -0.096,-0.035 -0.119,-0.041 l -0.335,-0.22 0.612,0.163 -0.037,0.139 c -0.024,-0.006 -0.064,-0.02 -0.121,-0.041 m 27.32,-54.567 0.122,0.032 -0.032,0.123 -0.122,-0.033 z m 3.034,-9.245 c -0.023,-0.006 -0.046,0.007 -0.066,0.039 -0.021,0.032 -0.003,0.056 0.055,0.071 0.059,0.016 0.081,0.003 0.067,-0.038 -0.002,-0.038 -0.021,-0.062 -0.056,-0.072 m -3.52,9.247 c 0.021,-0.082 0.061,-0.115 0.119,-0.1 0.058,0.015 0.077,0.064 0.055,0.146 -0.022,0.081 -0.062,0.114 -0.12,0.098 -0.058,-0.015 -0.076,-0.063 -0.054,-0.144 m -2.574,-4.715 c 0.03,-0.067 0.049,-0.111 0.055,-0.135 0.018,-0.02 0.045,-0.041 0.082,-0.062 0.037,-0.022 0.061,-0.03 0.073,-0.027 0.023,0.006 0.06,0.03 0.111,0.076 0.05,0.044 0.084,0.081 0.101,0.11 0.012,0.004 0.013,0.022 0.003,0.057 -0.009,0.035 -0.021,0.057 -0.036,0.066 -0.002,0.011 -0.022,0.028 -0.059,0.05 -0.037,0.021 -0.069,0.035 -0.095,0.04 -0.024,-0.006 -0.072,-0.013 -0.145,-0.021 -0.073,-0.006 -0.121,-0.012 -0.144,-0.018 0.006,-0.024 0.024,-0.069 0.054,-0.136 m 2.419,4.804 c 0.022,-0.082 0.061,-0.115 0.12,-0.099 0.058,0.015 0.076,0.064 0.054,0.145 -0.022,0.081 -0.061,0.114 -0.12,0.099 -0.058,-0.016 -0.076,-0.064 -0.054,-0.145 m -2.696,-5.028 c 0.022,-0.081 0.062,-0.114 0.12,-0.098 0.058,0.015 0.077,0.063 0.055,0.145 -0.021,0.081 -0.062,0.115 -0.12,0.099 -0.059,-0.015 -0.076,-0.064 -0.055,-0.146 m -0.107,0.758 0.032,-0.123 -0.155,0.09 z m -3.116,-8.002 c -0.047,-0.013 -0.057,-0.041 -0.034,-0.084 0.021,-0.032 0.043,-0.045 0.067,-0.038 0.035,0.009 0.053,0.032 0.056,0.07 -10e-4,0.05 -0.031,0.067 -0.089,0.052 m 2.644,6.96 c 0.022,-0.082 0.062,-0.115 0.12,-0.099 0.059,0.015 0.077,0.064 0.055,0.145 -0.022,0.082 -0.062,0.115 -0.12,0.099 -0.058,-0.016 -0.076,-0.064 -0.055,-0.145 m 2.132,4.615 c 0.021,-0.082 0.061,-0.115 0.12,-0.099 0.058,0.015 0.076,0.064 0.054,0.145 -0.021,0.082 -0.061,0.115 -0.119,0.1 -0.059,-0.016 -0.077,-0.065 -0.055,-0.146 m -0.057,1.762 c -0.024,-0.006 -0.047,0.012 -0.071,0.056 -0.021,0.032 -0.009,0.054 0.038,0.066 0.058,0.016 0.086,0.004 0.084,-0.033 10e-4,-0.05 -0.016,-0.079 -0.051,-0.089 m -0.184,-0.928 c -0.034,-0.059 -0.031,-0.096 0.011,-0.11 0.041,-0.014 0.074,10e-4 0.1,0.046 0.026,0.044 0.022,0.081 -0.01,0.109 -0.034,0.029 -0.067,0.014 -0.101,-0.045 m -4.205,19.088 0.09,0.155 c 0.008,0.015 0.034,0.031 0.08,0.05 0.044,0.018 0.073,0.029 0.085,0.032 0.006,-0.024 0.018,-0.093 0.036,-0.206 0.018,-0.114 0.023,-0.184 0.019,-0.21 0.005,-0.023 -0.002,-0.053 -0.024,-0.09 -0.021,-0.037 -0.043,-0.059 -0.067,-0.065 -0.014,0.009 -0.04,0.02 -0.075,0.036 -0.035,0.016 -0.062,0.033 -0.079,0.054 l -0.033,0.122 z m 3.917,-19.408 c 0.021,-0.082 0.061,-0.115 0.119,-0.1 0.058,0.016 0.077,0.064 0.055,0.146 -0.021,0.082 -0.062,0.115 -0.12,0.099 -0.059,-0.016 -0.076,-0.064 -0.054,-0.145 M -62.001,5.994 c 0.012,-0.047 0.034,-0.06 0.066,-0.039 0.032,0.021 0.045,0.043 0.039,0.067 -0.01,0.035 -0.034,0.053 -0.072,0.056 -0.038,0.002 -0.049,-0.026 -0.033,-0.084 m 58.465,-52.637 c 0.022,-0.082 0.062,-0.115 0.12,-0.099 0.058,0.015 0.077,0.064 0.055,0.146 -0.024,0.092 -0.067,0.132 -0.125,0.117 -0.058,-0.016 -0.074,-0.071 -0.05,-0.164 m -6.494,13.025 c 0.021,-0.081 0.061,-0.114 0.12,-0.099 0.057,0.016 0.076,0.064 0.055,0.146 -0.022,0.082 -0.063,0.115 -0.12,0.099 -0.059,-0.015 -0.077,-0.064 -0.055,-0.146 m 1.278,-18.004 c 0.002,0.014 0.002,0.026 -10e-4,0.038 0.026,-0.006 0.072,-0.013 0.136,-0.02 0.064,-0.008 0.112,-0.021 0.141,-0.038 0.021,-0.031 0.033,-0.053 0.036,-0.065 l -0.003,-0.056 c -0.024,-0.007 -0.068,-0.004 -0.135,0.01 -0.066,0.014 -0.113,0.029 -0.142,0.046 -0.019,0.021 -0.029,0.036 -0.032,0.048 -0.003,0.011 -0.003,0.024 0,0.037 m -11.095,1.017 c 0.021,-0.081 0.061,-0.114 0.119,-0.098 0.059,0.015 0.077,0.064 0.055,0.145 -0.022,0.081 -0.061,0.115 -0.12,0.099 -0.058,-0.015 -0.076,-0.064 -0.054,-0.146 m 9.732,49.365 -0.122,-0.033 0.089,0.156 z m -8.384,-57.939 c 0.022,-0.082 0.061,-0.114 0.12,-0.098 0.057,0.015 0.076,0.063 0.054,0.145 -0.022,0.081 -0.062,0.114 -0.12,0.099 -0.058,-0.016 -0.076,-0.065 -0.054,-0.146 m 8.235,58.217 c -0.023,-0.006 -0.047,0.013 -0.071,0.056 -0.033,0.029 -0.02,0.051 0.038,0.067 0.059,0.015 0.087,0.004 0.084,-0.033 10e-4,-0.051 -0.016,-0.08 -0.051,-0.09 m -5.707,-54.459 c -0.032,0.004 -0.066,10e-4 -0.101,-0.009 -0.035,-0.009 -0.066,-0.023 -0.091,-0.043 -0.026,-0.019 -0.03,-0.039 -0.013,-0.059 0.033,-0.029 0.078,-0.035 0.137,-0.02 0.058,0.016 0.094,0.044 0.108,0.085 0.006,0.026 -0.008,0.042 -0.04,0.046 m 1.464,14.307 c 0.014,-0.027 0.028,-0.045 0.043,-0.054 0.017,-0.02 0.045,-0.041 0.082,-0.062 0.037,-0.021 0.061,-0.031 0.073,-0.028 l -0.065,0.245 -0.158,-0.042 c 0.003,-0.011 0.012,-0.031 0.025,-0.059 m 3.655,8.475 c 0.029,-0.017 0.077,-0.032 0.143,-0.046 0.066,-0.013 0.111,-0.017 0.134,-0.011 0.026,-0.005 0.072,-0.002 0.138,0.009 0.066,0.01 0.11,0.02 0.133,0.027 0.004,-0.013 0.005,-0.028 0.003,-0.047 -10e-4,-0.02 0,-0.035 0.003,-0.046 -0.002,-0.038 -0.009,-0.093 -0.022,-0.165 -0.012,-0.071 -0.024,-0.109 -0.035,-0.112 0.003,-0.012 -0.01,-0.024 -0.037,-0.038 -0.028,-0.014 -0.053,-0.023 -0.076,-0.03 -0.023,-0.006 -0.051,-0.01 -0.081,-0.012 -0.031,-0.002 -0.047,0.003 -0.051,0.015 -0.011,-0.003 -0.044,0.037 -0.098,0.123 -0.054,0.086 -0.095,0.156 -0.121,0.211 l -0.014,0.053 z m 0.147,0.432 0.065,-0.244 c -0.012,-0.003 -0.036,0.006 -0.073,0.027 -0.037,0.021 -0.064,0.042 -0.082,0.063 -0.014,0.008 -0.029,0.027 -0.042,0.054 -0.014,0.026 -0.022,0.047 -0.026,0.059 z m -1.432,-34.316 c 0.007,-0.023 -0.006,-0.046 -0.038,-0.066 -0.032,-0.022 -0.054,-0.009 -0.066,0.039 -0.016,0.057 -0.004,0.085 0.033,0.083 0.039,-0.003 0.062,-0.021 0.071,-0.056 m 2.542,7.344 c 0.022,-0.081 0.062,-0.114 0.12,-0.099 0.059,0.016 0.077,0.064 0.055,0.146 -0.021,0.081 -0.062,0.115 -0.12,0.099 -0.058,-0.015 -0.076,-0.064 -0.055,-0.146 m 3.28,-6.546 c 0.022,-0.081 0.062,-0.115 0.12,-0.099 0.059,0.015 0.077,0.064 0.055,0.145 -0.022,0.082 -0.061,0.115 -0.12,0.1 -0.058,-0.016 -0.076,-0.064 -0.055,-0.146 m -3.307,11.01 0.032,-0.123 -0.122,-0.032 -0.033,0.122 z m -0.203,1.255 0.122,0.033 -0.033,0.122 -0.122,-0.032 z m 0.072,-0.767 0.033,-0.121 -0.155,0.089 z m -2.655,-11.489 c 0.015,-0.008 0.041,-0.023 0.078,-0.045 0.037,-0.021 0.064,-0.042 0.082,-0.062 0.003,-0.012 0.014,-0.031 0.034,-0.056 0.019,-0.027 0.031,-0.046 0.034,-0.057 l -0.577,-0.153 c -0.012,0.046 -0.006,0.091 0.02,0.136 0.005,0.026 0.037,0.059 0.095,0.1 0.058,0.04 0.095,0.075 0.112,0.105 l 0.07,0.019 z m -0.38,-3.001 -0.122,-0.032 0.09,0.155 z m 2.617,17.541 0.032,-0.122 -0.122,-0.033 -0.033,0.123 z m -0.131,0.489 0.033,-0.122 -0.122,-0.033 -0.033,0.122 z m -0.282,0.711 c 0.022,-0.082 0.061,-0.115 0.12,-0.099 0.058,0.015 0.076,0.064 0.054,0.145 -0.021,0.082 -0.061,0.115 -0.119,0.099 -0.059,-0.015 -0.077,-0.064 -0.055,-0.145 m -1.499,53.6 -0.089,-0.155 -0.033,0.123 z m -0.269,-0.464 0.033,-0.123 -0.155,0.09 z m -0.117,-1.808 c 0.006,-0.024 -0.007,-0.046 -0.039,-0.067 -0.029,-0.033 -0.051,-0.02 -0.066,0.038 -0.015,0.059 -0.004,0.086 0.034,0.084 0.041,-0.014 0.064,-0.033 0.071,-0.055 m -0.347,2.077 c 0.064,-0.008 0.115,-0.038 0.155,-0.09 0.014,-0.008 0.03,-0.033 0.046,-0.072 0.017,-0.039 0.027,-0.064 0.03,-0.076 -0.011,-0.003 -0.039,-0.004 -0.083,-0.003 -0.044,10e-4 -0.072,0 -0.083,-0.004 l -0.155,0.09 z m -0.147,-0.432 0.464,-0.269 -0.048,-0.032 c -0.012,-0.003 -0.036,-0.003 -0.074,0 -0.03,0.016 -0.082,0.046 -0.155,0.089 -0.074,0.043 -0.125,0.073 -0.155,0.09 l -0.018,0.069 z m -1.206,-72.287 c 0.006,-0.023 -0.006,-0.045 -0.038,-0.066 -0.032,-0.021 -0.055,-0.008 -0.067,0.038 -0.015,0.058 -0.004,0.087 0.034,0.084 0.038,-0.002 0.062,-0.021 0.071,-0.056 m -14.505,-6.591 c 0.022,-0.082 0.068,-0.114 0.138,-0.095 0.058,0.015 0.076,0.064 0.055,0.146 -0.025,0.093 -0.067,0.132 -0.125,0.116 -0.07,-0.018 -0.093,-0.074 -0.068,-0.167 m -0.053,8.179 c 0.044,-0.001 0.072,0.001 0.083,0.004 0.027,-0.005 0.055,-0.02 0.086,-0.043 0.031,-0.023 0.054,-0.038 0.069,-0.047 l -0.09,-0.155 c -0.011,-0.003 -0.036,0.006 -0.072,0.027 -0.037,0.022 -0.065,0.043 -0.083,0.063 -0.002,0.011 -0.015,0.033 -0.036,0.065 -0.02,0.032 -0.034,0.059 -0.04,0.083 0.011,0.002 0.039,0.004 0.083,0.003 m -0.528,-8.596 0.033,-0.122 -0.123,-0.033 -0.032,0.123 z m 13.749,4.089 c 0.022,-0.081 0.061,-0.114 0.119,-0.098 0.059,0.015 0.077,0.063 0.055,0.145 -0.021,0.081 -0.061,0.115 -0.12,0.099 -0.058,-0.016 -0.076,-0.064 -0.054,-0.146 m -14.133,1.29 -0.005,0.018 c -0.005,0.023 -0.003,0.036 0.009,0.039 l 0.155,-0.09 0.018,-0.07 0.014,-0.052 c -0.026,0.005 -0.058,0.019 -0.095,0.04 -0.037,0.022 -0.057,0.038 -0.06,0.05 -0.011,-0.003 -0.023,0.019 -0.036,0.065 m 15.444,72.148 0.032,-0.123 -0.244,-0.064 -0.033,0.122 z m -15.591,-78.977 -0.09,-0.155 -0.07,-0.019 -0.052,-0.014 0.09,0.155 0.07,0.019 z m 13.824,7.251 c 0.022,-0.081 0.062,-0.115 0.12,-0.099 0.059,0.016 0.076,0.064 0.055,0.146 -0.022,0.081 -0.061,0.114 -0.12,0.099 -0.058,-0.016 -0.076,-0.064 -0.055,-0.146 m -14.223,-7.226 0.032,-0.123 -0.155,0.09 z m 14.501,73.861 c -0.047,-0.013 -0.059,-0.035 -0.038,-0.068 0.021,-0.031 0.042,-0.044 0.066,-0.037 0.035,0.009 0.053,0.033 0.056,0.07 0.002,0.039 -0.026,0.05 -0.084,0.035 m -0.031,-35.739 0.032,-0.122 -0.122,-0.033 -0.033,0.123 z m -1.274,41.592 c 0.021,0.037 0.042,0.064 0.062,0.082 0.055,0.028 0.095,0.044 0.118,0.05 0.011,0.004 0.033,0.006 0.063,0.008 0.031,0.001 0.052,0.005 0.064,0.007 L -16.74,1.862 -16.829,1.707 c -0.029,0.016 -0.067,0.05 -0.111,0.101 -0.045,0.05 -0.07,0.087 -0.077,0.11 -0.002,0.011 0.007,0.036 0.028,0.073 m -0.156,-17.167 c 0.013,-0.047 0.041,-0.058 0.084,-0.034 0.033,0.02 0.044,0.043 0.039,0.067 -0.01,0.035 -0.033,0.052 -0.071,0.055 -0.05,0 -0.067,-0.03 -0.052,-0.088 m -0.127,7.86 c 0.006,-0.023 -0.006,-0.046 -0.038,-0.066 -0.032,-0.021 -0.054,-0.008 -0.067,0.039 -0.015,0.057 -0.004,0.086 0.035,0.083 0.038,-0.003 0.061,-0.021 0.07,-0.056 m -0.102,0.385 c -0.024,-0.007 -0.047,0.012 -0.071,0.055 -0.021,0.033 -0.008,0.055 0.038,0.067 0.059,0.016 0.086,0.004 0.084,-0.034 0.001,-0.049 -0.016,-0.079 -0.051,-0.088 m -0.336,-14.98 c 0.013,-0.047 0.035,-0.06 0.067,-0.038 0.032,0.02 0.045,0.043 0.038,0.066 -0.009,0.035 -0.032,0.053 -0.071,0.056 -0.037,0.002 -0.049,-0.026 -0.034,-0.084 m -1.172,18.469 -0.403,-0.106 c -0.002,0.011 -0.005,0.032 -0.007,0.063 -0.002,0.03 0.002,0.053 0.01,0.068 -0.003,0.011 0.006,0.036 0.028,0.072 0.021,0.037 0.041,0.065 0.062,0.083 z m -1.39,-11.369 c -0.024,-0.007 -0.047,0.013 -0.071,0.056 -0.022,0.032 -0.009,0.054 0.038,0.067 0.058,0.015 0.086,0.004 0.084,-0.035 0.001,-0.049 -0.016,-0.079 -0.051,-0.088 m -0.063,15.846 -0.123,-0.033 0.09,0.155 z M -53.161,5.48 c 0.022,-0.081 0.061,-0.114 0.119,-0.099 0.059,0.016 0.077,0.065 0.056,0.146 -0.022,0.081 -0.062,0.114 -0.121,0.099 -0.058,-0.016 -0.076,-0.064 -0.054,-0.146" /></g><g
           transform="translate(62.4057,82.1438)"
           id="g46"><path
             id="path48"
             style="fill:#0b0204;fill-opacity:1;fill-rule:nonzero;stroke:none"
             d="M 0,0 C -1.811,-4.84 -1.027,-10.341 2.083,-14.472 2.571,-15.12 3.685,-14.491 3.19,-13.833 0.261,-9.943 -0.478,-4.91 1.23,-0.347 1.518,0.424 0.286,0.765 0,0" /></g><g
           transform="translate(27.6121,17.4946)"
           id="g50"><path
             id="path52"
             style="fill:#0b0204;fill-opacity:1;fill-rule:nonzero;stroke:none"
             d="m 0,0 c 0,1.801 -0.087,3.325 -1.039,3.758 0.398,0.191 0.97,0.398 1.056,2.026 0,0 0.052,0.71 0.052,1.386 0,0.658 -0.052,1.42 -0.052,1.42 -0.069,1.593 -0.762,1.835 -1.056,1.974 0.917,0 4.572,-0.415 4.572,-3.394 0,-2.684 -2.84,-3.291 -4.07,-3.377 C 0.208,3.706 2.754,3.325 3.29,1.004 3.602,-0.329 3.048,-1.16 3.585,-1.905 4.035,-2.529 4.832,-2.494 5.421,-2.182 5.299,-2.321 3.983,-3.533 2.182,-3.273 0.433,-3.014 0,-1.334 0,0 m -6.408,-3.066 v 13.405 l -0.294,0.208 h 3.429 V -3.066 l 0.259,-0.207 h -3.688 z" /></g><g
           transform="translate(49.6753,18.4818)"
           id="g54"><path
             id="path56"
             style="fill:#0b0204;fill-opacity:1;fill-rule:nonzero;stroke:none"
             d="M 0,0 V -4.295 H -4.728 C -3.758,-4.156 -0.329,-3.412 0,0 m -4.728,9.525 h 4.174 V 5.49 C -0.693,6.338 -1.42,9.248 -4.728,9.525 M -5.092,2.806 c 1.854,0.346 2.286,2.112 2.286,2.112 v -4.26 c -0.017,0.139 -0.432,1.819 -2.286,2.148 m -1.021,-7.101 h -3.43 l 0.278,0.208 V 9.317 l -0.278,0.208 h 3.43 z" /></g><g
           transform="translate(65.8157,28.0068)"
           id="g58"><path
             id="path60"
             style="fill:#0b0204;fill-opacity:1;fill-rule:nonzero;stroke:none"
             d="m 0,0 -0.294,-0.208 v -9.404 c 0,-2.632 -2.772,-4.485 -5.179,-4.208 0,0 2.044,0.45 2.044,4.018 v 9.594 L -3.723,0 Z m -5.473,-10.53 c 0,-0.969 -0.796,-1.783 -1.783,-1.783 -0.277,0 -0.554,0.069 -0.797,0.19 0.208,-1.004 1.299,-1.576 1.299,-1.576 0,0 -2.286,0.745 -2.286,3.239 0,0.329 0.104,0.64 0.277,0.9 0.312,0.503 0.883,0.831 1.507,0.831 0.744,0 1.368,-0.45 1.645,-1.108 0.086,-0.208 0.138,-0.433 0.138,-0.675 z" /></g><g
           transform="translate(82.4585,18.4818)"
           id="g62"><path
             id="path64"
             style="fill:#0b0204;fill-opacity:1;fill-rule:nonzero;stroke:none"
             d="M 0,0 V -4.295 H -4.728 C -3.758,-4.156 -0.329,-3.412 0,0 m -4.728,9.525 h 4.174 V 5.49 C -0.693,6.338 -1.42,9.248 -4.728,9.525 M -5.092,2.806 c 1.854,0.346 2.286,2.112 2.286,2.112 v -4.26 c -0.017,0.139 -0.432,1.819 -2.286,2.148 m -1.021,-7.101 h -3.43 l 0.278,0.208 V 9.317 l -0.278,0.208 h 3.43 z" /></g><g
           transform="translate(96.3996,28.0068)"
           id="g66"><path
             id="path68"
             style="fill:#0b0204;fill-opacity:1;fill-rule:nonzero;stroke:none"
             d="M 0,0 H 3.897 C 2.182,-0.745 0.537,-4.174 0.537,-4.174 1.282,-1.126 0,0 0,0 m 1.576,-13.664 -3.602,7.585 c 0,0 1.87,-1.749 3.481,0.139 l 3.844,-7.88 H 1.368 Z m -8.122,0.052 V -0.208 L -6.841,0 h 3.689 l -0.277,-0.19 v -13.422 l 0.294,-0.208 h -3.706 z" /></g><g
           transform="translate(120.9743,28.0068)"
           id="g70"><path
             id="path72"
             style="fill:#0b0204;fill-opacity:1;fill-rule:nonzero;stroke:none"
             d="M 0,0 V -4.035 C -0.104,-3.187 -0.727,-0.277 -3.55,0 Z m -4.486,0 h -3.151 v -13.612 l -0.278,-0.208 h 3.672 l -0.243,0.208 z m -4.087,0 c -2.857,-0.277 -3.481,-3.187 -3.602,-4.035 V 0 Z" /></g><g
           transform="translate(39.446,35.4557)"
           id="g74"><path
             id="path76"
             style="fill:#ffffff;fill-opacity:1;fill-rule:nonzero;stroke:none"
             d="m 0,0 c -1.204,1.611 -9.559,15.859 -0.32,22.448 6.782,4.836 19.475,-4.093 18.016,10 -0.136,1.854 1.448,2.351 1.146,3.354 -0.738,2.45 -6.827,2.055 -7.468,4.219 -0.809,2.727 7.32,3.848 7.286,5.516 -0.023,1.102 -2.736,1.914 -1.031,2.825 1.25,0.668 3.231,1.668 3.194,3.193 -0.072,2.907 -8.128,7.216 -9.808,9.622 -1.536,2.201 0.141,3.881 -1.082,6.661 -5.543,12.6 -16.831,17.581 -26.207,17.287 0.013,0 0.005,-85.125 0.005,-85.135 0,-0.01 16.259,0.01 16.259,0.02" /></g><g
           transform="translate(51.1871,71.7438)"
           id="g78"><path
             id="path80"
             style="fill:#0b0204;fill-opacity:1;fill-rule:nonzero;stroke:none"
             d="m 0,0 c -0.024,0 -0.049,0.002 -0.074,0.006 -1.008,0.152 -1.917,0.78 -2.494,1.721 -0.546,0.891 -0.7,1.94 -0.412,2.805 0.089,0.269 0.379,0.413 0.646,0.324 C -2.066,4.767 -1.921,4.478 -2.01,4.21 -2.204,3.627 -2.087,2.898 -1.697,2.261 -1.278,1.577 -0.631,1.124 0.079,1.016 0.358,0.974 0.55,0.714 0.508,0.435 0.47,0.181 0.25,-0.002 0,0" /></g><g
           transform="translate(54.3941,82.5523)"
           id="g82"><path
             id="path84"
             style="fill:#0b0204;fill-opacity:1;fill-rule:nonzero;stroke:none"
             d="M 0,0 C -0.245,0.001 -0.46,0.18 -0.501,0.43 -0.707,1.701 0.142,3.212 1.245,3.539 1.516,3.619 1.801,3.464 1.881,3.194 1.961,2.923 1.807,2.639 1.536,2.559 0.924,2.377 0.386,1.348 0.508,0.593 0.553,0.314 0.364,0.052 0.085,0.007 0.057,0.002 0.028,0 0,0" /></g><g
           transform="translate(35.1629,94.7645)"
           id="g86"><path
             id="path88"
             style="fill:#0b0204;fill-opacity:1;fill-rule:nonzero;stroke:none"
             d="M 0,0 H 0.003 Z M 1.026,0.175 C 2.552,-0.278 5.936,-0.846 8.895,1.703 5.43,2.702 3.364,1.991 1.026,0.175 m 2.617,-1.387 c -2.192,0.014 -3.823,0.732 -3.854,0.747 -0.16,0.072 -0.271,0.221 -0.295,0.395 -0.024,0.174 0.043,0.348 0.177,0.461 C 2.649,2.9 5.301,4.035 10.041,2.413 10.206,2.356 10.331,2.219 10.372,2.05 10.413,1.88 10.365,1.701 10.244,1.575 8.102,-0.65 5.64,-1.224 3.643,-1.212" /></g><g
           transform="translate(40.1049,94.2288)"
           id="g90"><path
             id="path92"
             style="fill:#0b0204;fill-opacity:1;fill-rule:nonzero;stroke:none"
             d="M 0,0 V 0 C -0.775,0.013 -1.398,0.657 -1.385,1.432 -1.373,2.207 -0.728,2.83 0.046,2.818 0.821,2.805 1.445,2.16 1.432,1.385 1.419,0.611 0.775,-0.013 0,0" /></g><g
           transform="translate(34.371,96.6795)"
           id="g94"><path
             id="path96"
             style="fill:#0b0204;fill-opacity:1;fill-rule:nonzero;stroke:none"
             d="m 0,0 c -0.161,0.001 -0.318,0.078 -0.417,0.219 -0.161,0.232 -0.104,0.551 0.128,0.712 3.575,2.486 7.236,3.17 10.883,2.035 0.27,-0.084 0.42,-0.37 0.336,-0.64 C 10.846,2.057 10.56,1.906 10.29,1.99 6.96,3.027 3.597,2.388 0.294,0.092 0.205,0.029 0.102,-0.001 0,0" /></g></g></g></g></svg>